<svg xmlns="http://www.w3.org/2000/svg" viewBox="0 0 512 512">
  <!-- TreasuryDAO emblem: shield + vault coin + T monogram -->
  <defs>
    <linearGradient id="g-gold" x1="0%" y1="0%" x2="100%" y2="100%">
      <stop offset="0%" stop-color="#F8E7B9"/>
      <stop offset="50%" stop-color="#E8C86A"/>
      <stop offset="100%" stop-color="#C79A37"/>
    </linearGradient>
    <linearGradient id="g-emerald" x1="0%" y1="0%" x2="100%" y2="100%">
      <stop offset="0%" stop-color="#39D98A"/>
      <stop offset="100%" stop-color="#0EA371"/>
    </linearGradient>
    <filter id="soft" x="-20%" y="-20%" width="140%" height="140%">
      <feDropShadow dx="0" dy="2" stdDeviation="6" flood-color="#000" flood-opacity="0.25"/>
    </filter>
  </defs>

  <!-- Dark background to ensure good contrast on light themes -->
  <rect width="512" height="512" rx="96" ry="96" fill="#0F1115"/>

  <!-- DAO shield outline -->
  <path d="M256 68c86 0 156 28 156 62v98c0 96-86 164-156 188-70-24-156-92-156-188V130c0-34 70-62 156-62z"
        fill="none" stroke="url(#g-emerald)" stroke-width="18" filter="url(#soft)"/>

  <!-- Vault coin -->
  <circle cx="256" cy="240" r="108" fill="url(#g-gold)"/>
  <circle cx="256" cy="240" r="96" fill="none" stroke="#8F6A22" stroke-width="10"/>
  <circle cx="256" cy="240" r="6" fill="#8F6A22"/>
  <g stroke="#8F6A22" stroke-width="8">
    <line x1="256" y1="140" x2="256" y2="172"/>
    <line x1="256" y1="308" x2="256" y2="340"/>
    <line x1="356" y1="240" x2="324" y2="240"/>
    <line x1="188" y1="240" x2="156" y2="240"/>
  </g>

  <!-- T monogram (pillar + crossbar) -->
  <path d="M196 198h120c8 0 14-6 14-14s-6-14-14-14H196c-8 0-14 6-14 14s6 14 14 14z"
        fill="#0F1115"/>
  <rect x="240" y="198" width="32" height="110" rx="10" fill="#0F1115"/>

  <!-- Subtle outer border -->
  <rect x="10" y="10" width="492" height="492" rx="88" ry="88" fill="none" stroke="#1A1F2B" stroke-width="12"/>
</svg>


